<svg width="24" height="24" viewBox="0 0 24 24" fill="none" xmlns="http://www.w3.org/2000/svg">
<path d="M20 10C20 16.2222 12 21.5556 12 21.5556C12 21.5556 4 16.2222 4 10C4 7.87827 4.84285 5.84344 6.34315 4.34315C7.84344 2.84285 9.87827 2 12 2C14.1217 2 16.1566 2.84285 17.6569 4.34315C19.1571 5.84344 20 7.87827 20 10Z" stroke="#979797" stroke-linecap="round" stroke-linejoin="round"/>
<path d="M12 12.6667C13.4728 12.6667 14.6667 11.4728 14.6667 10C14.6667 8.52728 13.4728 7.33337 12 7.33337C10.5273 7.33337 9.33337 8.52728 9.33337 10C9.33337 11.4728 10.5273 12.6667 12 12.6667Z" stroke="#979797" stroke-linecap="round" stroke-linejoin="round"/>
</svg>